<?xml version="1.0" encoding="iso-8859-1"?>
<!-- Generator: Adobe Illustrator 19.0.0, SVG Export Plug-In . SVG Version: 6.00 Build 0)  -->
<svg version="1.1" id="Layer_1" xmlns="http://www.w3.org/2000/svg" xmlns:xlink="http://www.w3.org/1999/xlink" x="0px" y="0px"
	 viewBox="0 0 511.976 511.976" style="enable-background:new 0 0 511.976 511.976;" xml:space="preserve">
<g>
	<g>
		<g>
			<path d="M162.106,494.909h-17.067c-4.71,0-8.533,3.823-8.533,8.533c0,4.71,3.823,8.533,8.533,8.533h17.067
				c4.71,0,8.533-3.823,8.533-8.533C170.639,498.732,166.816,494.909,162.106,494.909z"/>
			<path d="M85.357,477.791c0-4.71-3.823-8.533-8.533-8.533c-5.137,0-12.288,2.347-15.565,8.951
				c-5.649,11.383,5.205,25.66,8.772,30.353c1.681,2.202,4.224,3.362,6.801,3.362c1.801,0,3.61-0.563,5.154-1.741
				c3.755-2.85,4.48-8.201,1.63-11.955c-5.018-6.596-6.4-10.266-6.775-11.896c0.051,0,0.094-0.009,0.137-0.009
				C81.619,486.247,85.357,482.459,85.357,477.791z"/>
			<path d="M19.565,480.317c-1.621,1.621-2.56,3.84-2.56,6.059s0.939,4.437,2.56,6.059c1.536,1.536,3.755,2.475,5.973,2.475
				c2.304,0,4.523-0.939,6.059-2.475c1.621-1.621,2.475-3.84,2.475-6.059s-0.853-4.437-2.475-6.059
				C28.439,477.159,22.637,477.159,19.565,480.317z"/>
			<path d="M224.365,497.384c-1.621,1.621-2.56,3.755-2.56,6.059c0,2.304,0.939,4.437,2.56,6.059
				c1.536,1.536,3.755,2.475,6.059,2.475c2.219,0,4.437-0.939,5.973-2.475c1.621-1.621,2.475-3.755,2.475-6.059
				c0-2.304-0.853-4.437-2.475-6.059C233.239,494.226,227.522,494.226,224.365,497.384z"/>
			<path d="M499.471,156.076L355.872,12.468h-0.009V12.46c-0.008-0.009-0.017-0.009-0.017-0.009
				c-16.64-16.614-43.699-16.614-60.382,0.077L10.161,303.37c-13.577,13.585-13.517,42.377,0.017,55.91l112.375,115.968
				c1.673,1.724,3.9,2.594,6.127,2.594c2.142,0,4.284-0.802,5.939-2.406c3.379-3.277,3.473-8.678,0.188-12.066L22.338,347.316
				c-7.023-7.031-7.083-24.9-0.051-31.94l147.576-150.434l11.085,11.068L38.432,319.114c-6.724,6.741-6.758,17.254-0.077,23.936
				l98.517,98.517c1.664,1.664,3.849,2.5,6.033,2.5c2.185,0,4.369-0.836,6.033-2.5c3.337-3.337,3.337-8.738,0-12.066l-98.423-98.33
				l142.498-143.096L348.209,343.22L230.381,460.776h-68.275c-4.71,0-8.533,3.823-8.533,8.533s3.823,8.533,8.533,8.533h71.799
				c2.261,0,4.429-0.896,6.025-2.492l126.353-126.063c0.017-0.009,0.026-0.009,0.043-0.017c0.008-0.009,0.008-0.026,0.026-0.043
				l133.12-132.813c8.064-8.055,12.501-18.765,12.501-30.165S507.535,164.131,499.471,156.076z M192.988,163.918l-11.17-11.162
				L307.59,24.534c7.859-7.859,19.576-9.429,29.09-4.907L192.988,163.918z M487.413,204.34L360.292,331.171L205.054,175.993
				L349.856,30.585l137.549,137.557c4.838,4.838,7.501,11.264,7.501,18.108C494.906,193.085,492.243,199.51,487.413,204.34z"/>
			<path d="M284.943,487.997c-6.596,5.018-10.266,6.4-11.895,6.776c0-0.051-0.009-0.085-0.009-0.128
				c-0.077-4.642-3.866-8.388-8.533-8.388c-4.71,0-8.533,3.823-8.533,8.533c0,5.137,2.347,12.297,8.943,15.573
				c2.278,1.126,4.668,1.596,7.083,1.596c9.634,0,19.524-7.518,23.279-10.377c3.746-2.85,4.48-8.201,1.621-11.955
				C294.057,485.872,288.706,485.138,284.943,487.997z"/>
			<path d="M349.429,470.93c-11.383-5.649-25.668,5.205-30.353,8.772c-3.755,2.85-4.48,8.201-1.63,11.955
				c1.681,2.21,4.224,3.371,6.801,3.371c1.801,0,3.61-0.572,5.163-1.741c6.588-5.018,10.266-6.4,11.887-6.775
				c0.009,0.051,0.009,0.085,0.009,0.128c0.077,4.642,3.874,8.388,8.533,8.388c4.71,0,8.533-3.823,8.533-8.533
				C358.372,481.358,356.034,474.198,349.429,470.93z"/>
		</g>
	</g>
</g>
<g>
</g>
<g>
</g>
<g>
</g>
<g>
</g>
<g>
</g>
<g>
</g>
<g>
</g>
<g>
</g>
<g>
</g>
<g>
</g>
<g>
</g>
<g>
</g>
<g>
</g>
<g>
</g>
<g>
</g>
</svg>
