<svg xmlns="http://www.w3.org/2000/svg" viewBox="0 0 117.773 62.385"><defs><style>.a{fill:none;}.b{fill:#57c9e8;}.c{fill:#fff;}.d{fill:#a1dcee;}.e{fill:#c7e9f6;}</style></defs><title>chillFull</title><rect class="a" width="117.773" height="62.385"/><path class="b" d="M69.351,28.148a8.185,8.185,0,0,0-2.636.408,5.536,5.536,0,0,0-2.092,1.258,5.742,5.742,0,0,0-1.378,2.161,8.723,8.723,0,0,0-.493,3.079,8.311,8.311,0,0,0,.544,3.163,5.756,5.756,0,0,0,1.48,2.161,6.053,6.053,0,0,0,2.211,1.241,8.824,8.824,0,0,0,2.7.408,7.69,7.69,0,0,0,2.806-.408,14.426,14.426,0,0,0,1.548-.714l.918,1.667a13.322,13.322,0,0,1-2.279.969,11.18,11.18,0,0,1-3.4.425,10.688,10.688,0,0,1-3.555-.578,7.7,7.7,0,0,1-4.711-4.457,9.551,9.551,0,0,1-.681-3.707,10.133,10.133,0,0,1,.681-3.827,8.148,8.148,0,0,1,1.871-2.841A7.807,7.807,0,0,1,65.745,26.8a10.748,10.748,0,0,1,3.64-.6,10.6,10.6,0,0,1,3.5.46,5.954,5.954,0,0,1,1.565.731,1.658,1.658,0,0,1,.408.426,1.108,1.108,0,0,1,.17.629,1.5,1.5,0,0,1-.187.646,1.793,1.793,0,0,1-.561.647,7.206,7.206,0,0,0-1.82-1.055A7.792,7.792,0,0,0,69.351,28.148Z"/><path class="b" d="M76.6,19.575a1.072,1.072,0,0,1,1.224-1.157,2.1,2.1,0,0,1,.6.086,2.674,2.674,0,0,1,.425.153V29.134a6.277,6.277,0,0,1,2.33-2.007,8.44,8.44,0,0,1,1.854-.663,9.992,9.992,0,0,1,2.347-.256,7.31,7.31,0,0,1,5.171,1.736,6.262,6.262,0,0,1,1.871,4.83V43.49H90.17V33.931a10.541,10.541,0,0,0-.255-2.432,4.456,4.456,0,0,0-.868-1.82,3.841,3.841,0,0,0-1.616-1.14,7.06,7.06,0,0,0-2.534-.391,6.894,6.894,0,0,0-2.67.476,5.277,5.277,0,0,0-1.889,1.293,5.355,5.355,0,0,0-1.122,1.9,7.06,7.06,0,0,0-.374,2.314V43.49H76.6Z"/><path class="b" d="M98.709,20.732A1.685,1.685,0,0,1,97.042,22.4a1.546,1.546,0,0,1-1.157-.493,1.626,1.626,0,0,1-.476-1.173A1.625,1.625,0,0,1,97.042,19.1a1.633,1.633,0,0,1,1.173.476A1.549,1.549,0,0,1,98.709,20.732Zm-2.756,7.11a1.071,1.071,0,0,1,1.225-1.157,2.123,2.123,0,0,1,.595.085,2.892,2.892,0,0,1,.425.153V43.49H95.953Z"/><path class="b" d="M101.906,19.575a1.072,1.072,0,0,1,1.225-1.157,2.094,2.094,0,0,1,.595.086,2.674,2.674,0,0,1,.425.153V43.49h-2.245Z"/><path class="b" d="M107.859,19.575a1.072,1.072,0,0,1,1.225-1.157,2.088,2.088,0,0,1,.595.086,2.693,2.693,0,0,1,.426.153V43.49h-2.246Z"/><path class="c" d="M52.209,15.8,34.327,5.475a5.86,5.86,0,0,0-5.851,0L10.594,15.8a5.868,5.868,0,0,0-2.926,5.068V41.516A5.868,5.868,0,0,0,10.6,46.585L28.473,56.906a5.845,5.845,0,0,0,5.855,0L52.207,46.586a5.869,5.869,0,0,0,2.929-5.07V20.869A5.87,5.87,0,0,0,52.209,15.8Z"/><path class="b" d="M51.039,17.827,33.157,7.5a3.517,3.517,0,0,0-3.511,0L11.765,17.828a3.521,3.521,0,0,0-1.756,3.04V41.516a3.521,3.521,0,0,0,1.757,3.041L29.645,54.88a3.514,3.514,0,0,0,3.513,0l17.88-10.324A3.519,3.519,0,0,0,52.8,41.516V20.868A3.524,3.524,0,0,0,51.039,17.827Zm-.585,23.689a1.173,1.173,0,0,1-.586,1.014L31.987,52.853a1.17,1.17,0,0,1-1.17,0L12.936,42.53a1.172,1.172,0,0,1-.585-1.014V20.869a1.17,1.17,0,0,1,.585-1.014L30.817,9.531a1.17,1.17,0,0,1,1.17,0L49.868,19.855a1.171,1.171,0,0,1,.586,1.014Z"/><path class="d" d="M32.573,38.725V31.868l2.309-1.333L38.51,28.44l4.657,1.248a1.187,1.187,0,0,0,.3.04,1.171,1.171,0,0,0,.3-2.3l-2.4-.642,3.17-1.83a1.17,1.17,0,1,0-1.17-2.027l-3.171,1.83.642-2.4a1.17,1.17,0,1,0-2.261-.606L37.34,26.412l-3.628,2.1L31.4,29.841l-2.31-1.334-3.628-2.1-1.247-4.656a1.171,1.171,0,1,0-2.262.606l.642,2.4-3.17-1.83a1.17,1.17,0,1,0-1.17,2.027l3.17,1.83-2.4.642a1.171,1.171,0,1,0,.606,2.262l4.657-1.248,3.628,2.095,2.31,1.333v6.857l-3.409,3.409a1.17,1.17,0,1,0,1.655,1.655l1.754-1.754V45.7a1.171,1.171,0,1,0,2.341,0V42.035l1.753,1.754a1.17,1.17,0,0,0,1.655-1.655Z"/><path class="e" d="M35.981,18.58a1.17,1.17,0,0,0-1.655,0l-1.753,1.753V16.672a1.171,1.171,0,0,0-2.341,0v3.661l-1.754-1.754a1.171,1.171,0,1,0-1.655,1.656l3.409,3.409v3.068a1.171,1.171,0,1,0,2.341,0V23.643l3.408-3.408A1.168,1.168,0,0,0,35.981,18.58Z"/><path class="e" d="M22.783,41.456a1.169,1.169,0,0,1-.827-1.433l.642-2.4-3.171,1.83a1.17,1.17,0,1,1-1.171-2.027L21.427,35.6l-2.4-.642a1.171,1.171,0,1,1,.607-2.261l4.656,1.248,2.657-1.534a1.17,1.17,0,1,1,1.171,2.027l-2.658,1.535-1.247,4.656A1.17,1.17,0,0,1,22.783,41.456Z"/><path class="e" d="M44.6,33.525a1.169,1.169,0,0,1-.827,1.433l-2.4.642,3.17,1.83a1.171,1.171,0,0,1-1.171,2.028l-3.17-1.83.642,2.4a1.171,1.171,0,1,1-2.262.606L37.34,35.972l-2.658-1.534a1.171,1.171,0,0,1,1.171-2.028l2.658,1.535L43.167,32.7A1.17,1.17,0,0,1,44.6,33.525Z"/></svg>